<?xml version="1.0" standalone="no"?>
<!DOCTYPE svg PUBLIC "-//W3C//DTD SVG 20010904//EN"
 "http://www.w3.org/TR/2001/REC-SVG-20010904/DTD/svg10.dtd">
<svg version="1.0" xmlns="http://www.w3.org/2000/svg"
 width="32.000000pt" height="32.000000pt" viewBox="0 0 32.000000 32.000000"
 preserveAspectRatio="xMidYMid meet">

<g transform="translate(0.000000,32.000000) scale(0.100000,-0.100000)"
fill="#000000" stroke="none">
<path d="M158 241 c-81 -31 -151 -60 -155 -64 -3 -4 12 -15 35 -23 36 -15 43
-23 57 -65 17 -50 22 -52 57 -21 15 13 22 11 60 -17 23 -17 45 -28 49 -24 4 5
17 58 29 118 12 61 24 120 27 133 3 12 1 22 -3 21 -5 0 -75 -26 -156 -58z m38
-53 c-32 -29 -64 -65 -71 -82 l-13 -29 -7 32 c-4 19 -3 37 3 43 12 12 135 88
142 88 3 0 -21 -24 -54 -52z"/>
</g>
</svg>
