<?xml version="1.0" standalone="no"?>
<!DOCTYPE svg PUBLIC "-//W3C//DTD SVG 20010904//EN"
 "http://www.w3.org/TR/2001/REC-SVG-20010904/DTD/svg10.dtd">
<svg version="1.0" xmlns="http://www.w3.org/2000/svg"
 width="32.000000pt" height="32.000000pt" viewBox="0 0 32.000000 32.000000"
 preserveAspectRatio="xMidYMid meet">

<g transform="translate(0.000000,32.000000) scale(0.100000,-0.100000)"
fill="#000000" stroke="none">
<path d="M145 310 c-3 -5 3 -10 15 -10 12 0 18 5 15 10 -3 6 -10 10 -15 10 -5
0 -12 -4 -15 -10z"/>
<path d="M60 220 c0 -54 3 -64 28 -85 20 -18 39 -24 72 -24 33 0 52 6 72 24
25 21 28 31 28 85 l0 60 -100 0 -100 0 0 -60z m131 30 c18 0 41 -50 35 -75 -5
-21 -12 -25 -46 -25 -61 0 -79 53 -27 78 12 6 17 11 11 11 -7 1 -22 -7 -34
-17 -30 -24 -21 -63 17 -82 25 -12 26 -14 8 -18 -21 -5 -65 38 -65 64 0 39 46
79 78 68 8 -2 18 -4 23 -4z"/>
<path d="M190 196 c0 -14 5 -26 10 -26 6 0 10 9 10 19 0 11 -4 23 -10 26 -6 4
-10 -5 -10 -19z"/>
<path d="M145 200 c-7 -12 2 -30 16 -30 12 0 12 27 0 35 -5 3 -12 1 -16 -5z"/>
<path d="M22 207 c-9 -11 -10 -17 -2 -22 15 -9 23 -1 18 21 -3 15 -4 16 -16 1z"/>
<path d="M280 201 c0 -11 4 -21 9 -21 18 0 21 18 6 30 -13 10 -15 9 -15 -9z"/>
<path d="M0 101 c0 -44 3 -81 8 -81 11 1 98 78 92 82 -3 2 -26 21 -52 42 l-48
38 0 -81z"/>
<path d="M268 142 c-26 -21 -47 -40 -48 -44 0 -4 21 -23 48 -43 l47 -37 3 41
c2 23 2 59 0 80 l-3 39 -47 -36z"/>
<path d="M72 47 l-52 -42 70 -3 c38 -2 102 -2 142 0 l72 3 -57 43 c-74 55
-104 55 -175 -1z"/>
</g>
</svg>
