<?xml version="1.0" standalone="no"?>
<!DOCTYPE svg PUBLIC "-//W3C//DTD SVG 20010904//EN"
 "http://www.w3.org/TR/2001/REC-SVG-20010904/DTD/svg10.dtd">
<svg version="1.0" xmlns="http://www.w3.org/2000/svg"
 width="50.000000pt" height="50.000000pt" viewBox="0 0 50.000000 50.000000"
 preserveAspectRatio="xMidYMid meet">

<g transform="translate(0.000000,50.000000) scale(0.100000,-0.100000)"
fill="#000000" stroke="none">
<path d="M44 448 c-9 -14 -7 -385 2 -399 3 -5 64 -9 135 -9 84 0 128 4 124 10
-4 6 -57 10 -126 10 l-119 0 0 100 c0 93 1 100 20 101 11 0 88 1 170 1 201 0
190 1 190 -22 0 -11 4 -20 9 -20 13 0 21 107 13 175 l-7 60 -202 3 c-153 2
-203 -1 -209 -10z m396 -28 c0 -19 -7 -20 -190 -20 -183 0 -190 1 -190 20 0
19 7 20 190 20 183 0 190 -1 190 -20z m-342 -87 c-3 -40 -6 -48 -23 -48 -13 0
-21 8 -23 24 -6 40 7 71 29 71 18 0 20 -5 17 -47z m70 0 c-3 -40 -6 -48 -23
-48 -17 0 -20 8 -23 48 -3 45 -2 47 23 47 25 0 26 -2 23 -47z m70 0 c-3 -40
-6 -48 -23 -48 -17 0 -20 8 -23 48 -3 45 -2 47 23 47 25 0 26 -2 23 -47z m70
0 c-3 -40 -6 -48 -23 -48 -17 0 -20 8 -23 48 -3 45 -2 47 23 47 25 0 26 -2 23
-47z m70 0 c-3 -40 -6 -48 -23 -48 -17 0 -20 8 -23 48 -3 45 -2 47 23 47 25 0
26 -2 23 -47z m68 23 c10 -41 1 -71 -21 -71 -17 0 -20 8 -23 48 -3 42 -1 47
17 47 13 0 23 -8 27 -24z"/>
<path d="M70 420 c0 -5 5 -10 10 -10 6 0 10 5 10 10 0 6 -4 10 -10 10 -5 0
-10 -4 -10 -10z"/>
<path d="M100 420 c0 -5 5 -10 10 -10 6 0 10 5 10 10 0 6 -4 10 -10 10 -5 0
-10 -4 -10 -10z"/>
<path d="M130 420 c0 -5 5 -10 10 -10 6 0 10 5 10 10 0 6 -4 10 -10 10 -5 0
-10 -4 -10 -10z"/>
<path d="M299 179 c-37 -37 -15 -99 50 -142 l41 -27 41 27 c62 41 85 98 55
138 -21 29 -159 32 -187 4z m70 -9 c12 -6 29 -5 49 2 37 14 62 -1 62 -40 0
-29 -61 -92 -90 -92 -28 0 -90 63 -90 92 0 42 31 59 69 38z"/>
</g>
</svg>
