<?xml version="1.0" standalone="no"?>
<!DOCTYPE svg PUBLIC "-//W3C//DTD SVG 20010904//EN"
 "http://www.w3.org/TR/2001/REC-SVG-20010904/DTD/svg10.dtd">
<svg version="1.0" xmlns="http://www.w3.org/2000/svg"
 width="64.000000pt" height="64.000000pt" viewBox="0 0 64.000000 64.000000"
 preserveAspectRatio="xMidYMid meet">

<g transform="translate(0.000000,64.000000) scale(0.100000,-0.100000)"
fill="#000000" stroke="none">
<path d="M102 598 c-24 -24 -4 -88 28 -88 16 0 40 32 40 54 0 26 -17 46 -40
46 -9 0 -21 -5 -28 -12z"/>
<path d="M482 567 c-28 -30 -28 -68 1 -95 46 -44 117 -14 117 48 0 63 -75 93
-118 47z m67 -53 l-25 -25 -20 22 c-19 21 -19 22 2 15 11 -3 28 0 40 8 29 22
31 9 3 -20z"/>
<path d="M390 430 l0 -100 -26 0 c-22 0 -25 2 -14 15 20 24 -13 19 -35 -5 -17
-19 -17 -21 0 -40 22 -24 55 -29 35 -5 -11 13 -8 15 14 15 l26 0 0 -100 0
-100 30 0 c17 0 30 5 30 10 0 6 -9 10 -20 10 -19 0 -20 7 -20 90 0 83 1 90 20
90 11 0 20 5 20 10 0 6 -9 10 -20 10 -19 0 -20 7 -20 90 0 83 1 90 20 90 11 0
20 5 20 10 0 6 -13 10 -30 10 l-30 0 0 -100z"/>
<path d="M47 443 c-4 -3 -7 -40 -7 -82 0 -59 5 -83 20 -106 16 -24 20 -47 20
-115 0 -47 4 -91 9 -98 5 -8 23 -12 47 -10 l39 3 8 104 c7 78 14 111 28 131
16 21 19 39 17 95 -3 75 -21 101 -53 75 -20 -17 -73 -19 -80 -2 -5 13 -37 17
-48 5z"/>
<path d="M482 367 c-28 -30 -28 -68 1 -95 46 -44 117 -14 117 48 0 63 -75 93
-118 47z m74 -47 c0 -11 -9 -20 -23 -23 -19 -4 -23 0 -23 23 0 23 4 27 23 23
14 -3 23 -12 23 -23z"/>
<path d="M482 167 c-28 -30 -28 -68 1 -95 46 -44 117 -14 117 48 0 63 -75 93
-118 47z m67 -53 l-25 -25 -20 22 c-19 21 -19 22 2 15 11 -3 28 0 40 8 29 22
31 9 3 -20z"/>
</g>
</svg>
